PathFileType	4	(X/Y/Z)	C:\Users\WrightLab\Desktop\Jo\P3_33.trc
DataRate	CameraRate	NumFrames	NumMarkers	Units	OrigDataRate	OrigDataStartFrame	OrigNumFrames
100.00	100.00	       81	19	mm	100.00	566	       646
Frame#	Time	Headset_Front			Headset_Back			Headset_Left			Headset_Right			Left_Shoulder			Right_Shoulder			Sternum			C7			Left Elbow			Right Elbow			Left Wrist			Right Wrist			Left ASIS			Right ASIS			S2			Left Knee			Right Knee			Left Ankle			Right Ankle			
		X1	Y1	Z1	X2	Y2	Z2	X3	Y3	Z3	X4	Y4	Z4	X5	Y5	Z5	X6	Y6	Z6	X7	Y7	Z7	X8	Y8	Z8	X9	Y9	Z9	X10	Y10	Z10	X11	Y11	Z11	X12	Y12	Z12	X13	Y13	Z13	X14	Y14	Z14	X15	Y15	Z15	X16	Y16	Z16	X17	Y17	Z17	X18	Y18	Z18	X19	Y19	Z19	

566	5.650																																																							-460.62149	86.99619	-1587.45789	
567	5.660																																																							-468.14362	87.60118	-1597.85522	
568	5.670																																																							-474.20721	89.17986	-1607.03821	
569	5.680																																																							-479.63187	89.09253	-1620.46033	
570	5.690																																																							-485.78928	94.08815	-1620.18713	
571	5.700																																																							-490.90421	91.00827	-1637.80176	
572	5.710																																																							-495.62946	92.02538	-1646.26831	
573	5.720																																																							-499.68219	90.95921	-1654.12866	
574	5.730																																																							-503.58087	91.01180	-1661.11475	
575	5.740																																																							-507.70981	90.73251	-1666.46130	
576	5.750																																																							-510.82465	89.41318	-1671.61890	
577	5.760																																																							-513.27740	87.14847	-1680.36279	
578	5.770																																																							-515.75153	87.26547	-1683.27209	
579	5.780																																																							-518.04230	85.93016	-1687.58044	
580	5.790																																																							-519.58636	82.56001	-1693.81836	
581	5.800																																																							-520.55768	80.85684	-1698.38489	
582	5.810																																																							-521.82965	79.08739	-1700.52612	
583	5.820																																																							-522.72864	77.09406	-1704.64734	
584	5.830																																																							-523.17114	74.41024	-1708.91760	
585	5.840																																																							-523.49634	72.49786	-1708.82117	
586	5.850																																																							-522.76074	70.23400	-1710.77734	
587	5.860																																																							-522.72650	69.97882	-1710.53809	
588	5.870																																																							-521.22351	66.50771	-1717.20422	
589	5.880																																																							-521.15833	66.42822	-1716.84875	
590	5.890																																																							-521.37701	65.90327	-1717.84436	
591	5.900																																																							-522.43640	64.37074	-1716.25208	
592	5.910																																																							-522.78601	63.56893	-1717.85242	
593	5.920																																																							-523.06958	62.97123	-1719.16333	
594	5.930																																																							-523.26685	62.60292	-1720.08704	
595	5.940																																																							-523.45520	62.28903	-1720.97815	
596	5.950																																																							-523.64087	61.97005	-1721.85425	
597	5.960																																																							-524.24518	62.73865	-1720.45349	
598	5.970																																																							-524.82831	62.73771	-1718.81750	
599	5.980																																																							-525.42981	63.46799	-1716.15735	
600	5.990																																																							-525.41614	63.40486	-1716.07141	
601	6.000																																																							-525.42328	63.32095	-1716.08716	
602	6.010																																																							-525.46899	63.20367	-1716.29285	
603	6.020																																																							-525.57123	62.87329	-1716.73560	
604	6.030																																																							-526.07434	62.51255	-1715.26758	
605	6.040																																																							-526.21484	62.13826	-1715.89575	
606	6.050																																																							-526.40039	61.66462	-1716.72974	
607	6.060																																																							-526.75623	60.85950	-1718.35547	
608	6.070																																																							-527.05157	60.17850	-1719.70117	
609	6.080																																																							-527.46051	58.74107	-1720.58179	
610	6.090																																																							-527.73657	58.17292	-1721.85706	
611	6.100																																																							-527.91461	57.78327	-1722.67358	
612	6.110																																																							-528.01129	57.52179	-1723.10437	
613	6.120																																																							-528.01001	57.46083	-1723.08203	
614	6.130																																																							-528.02142	57.35729	-1723.11438	
615	6.140																																																							-527.94379	57.36484	-1722.71680	
616	6.150																																																							-527.88501	57.40861	-1722.42542	
617	6.160																																																							-527.93494	56.65064	-1721.63269	
618	6.170																																																							-527.88440	56.65863	-1721.37476	
619	6.180																																																							-527.86682	56.66404	-1721.28589	
620	6.190																																																							-527.76910	56.72663	-1720.79919	
621	6.200																																																										
622	6.210																																																										
623	6.220																																																										
624	6.230																																																										
625	6.240																																																										
626	6.250																																																										
627	6.260																																																										
628	6.270																																																										
629	6.280																																																										
630	6.290																																																										
631	6.300																																																										
632	6.310																																																										
633	6.320																																																										
634	6.330																																																										
635	6.340																																																										
636	6.350																																																										
637	6.360																																																										
638	6.370																																																										
639	6.380																																																										
640	6.390																																																										
641	6.400																																																										
642	6.410																																																										
643	6.420																																																										
644	6.430																																																										
645	6.440																																																										
646	6.450																																																										
